<svg xmlns="http://www.w3.org/2000/svg" viewBox="0 0 620 520" fill="none" role="img" aria-labelledby="title desc"><title id="title">一页成舟，载着内容出发</title><desc id="desc">一张写有内容的纸折成帆，纸舟沿着细线航向一枚链接。</desc><style>:root{--paper:oklch(99.8% .002 110);--ink:oklch(27% .009 115);--accent:oklch(84.9% .207 128.85);--wash:oklch(97.8% .027 117);--rule:oklch(81% .05 124)}</style>
<path d="M40 379c57-25 62 60 136 28s92 70 167 44 130 4 161-46 10-91 65-108" stroke="var(--rule)" stroke-width="1.5" stroke-dasharray="5 7"/>
<path d="M127 467c36-18 39 2 67-4M466 459c28-17 48-9 65-17" stroke="var(--rule)" stroke-width="1.5" stroke-linecap="round"/>
<g transform="rotate(-7 303 240)"><path d="M222 51h130l60 62v263H222V51Z" fill="var(--wash)" stroke="var(--ink)" stroke-width="2"/><path d="M352 51v62h60" fill="var(--paper)" stroke="var(--ink)" stroke-width="2"/><path d="M246 93h65M246 148h133M246 165h114M246 182h128M246 227h74" stroke="var(--ink)" stroke-width="2" stroke-linecap="round"/><path d="M246 203h132" stroke="var(--rule)" stroke-width="2"/><path d="M238 299 323 162v150H238Z" fill="var(--paper)" stroke="var(--ink)" stroke-width="2.4"/><path d="m336 215 66 96h-66v-96Z" fill="var(--accent)" stroke="var(--ink)" stroke-width="2.4"/><path d="m198 328 45 51h122l61-51H198Z" fill="var(--accent)" stroke="var(--ink)" stroke-width="2.4"/><path d="m198 328 74 30h114" stroke="var(--ink)" stroke-width="2.4"/></g>
<g transform="rotate(9 491 179)"><rect x="453" y="147" width="77" height="63" rx="14" fill="var(--paper)" stroke="var(--ink)" stroke-width="2"/><path d="m484 177 6-6a10 10 0 0 1 14 14l-6 6m-9-9-6 6a10 10 0 0 1-14-14l6-6m7 15 11-11" stroke="var(--ink)" stroke-width="2.5" stroke-linecap="round"/></g>
<g transform="rotate(-11 120 201)"><path d="M86 166h48l21 22v55H86v-77Z" fill="var(--paper)" stroke="var(--ink)" stroke-width="1.8"/><path d="M134 166v22h21M100 204h36M100 217h25" stroke="var(--ink)" stroke-width="1.8"/></g>
<path d="m147 126 5-13m5 22 14-5M429 61l5 10m8-16-3 13" stroke="var(--rule)" stroke-width="2" stroke-linecap="round"/>
</svg>
